<svg id="Group_74" data-name="Group 74" xmlns="http://www.w3.org/2000/svg" xmlns:xlink="http://www.w3.org/1999/xlink" width="769.529" height="1615.81" viewBox="0 0 769.529 1615.81">
  <defs>
    <radialGradient id="radial-gradient" cx="0.297" cy="0.337" r="0.5" gradientUnits="objectBoundingBox">
      <stop offset="0" stop-color="#5db7eb"/>
      <stop offset="0.078" stop-color="#b3b8eb"/>
      <stop offset="0.193" stop-color="#7faedc"/>
      <stop offset="0.269" stop-color="#b3affa"/>
      <stop offset="0.374" stop-color="#fecafd"/>
      <stop offset="0.444" stop-color="#509acc"/>
      <stop offset="0.508" stop-color="#4db2e1"/>
      <stop offset="0.598" stop-color="#b0e7f2"/>
      <stop offset="0.674" stop-color="#3593c0"/>
      <stop offset="0.774" stop-color="#6b90ba"/>
      <stop offset="0.818" stop-color="#b494c1"/>
      <stop offset="0.908" stop-color="#3bc8ea"/>
      <stop offset="1" stop-color="#4bd3f3"/>
    </radialGradient>
    <filter id="Ellipse_99" x="0" y="279.954" width="769.529" height="1052.923" filterUnits="userSpaceOnUse">
      <feOffset dy="3" input="SourceAlpha"/>
      <feGaussianBlur stdDeviation="3" result="blur"/>
      <feFlood flood-opacity="0.161"/>
      <feComposite operator="in" in2="blur"/>
      <feComposite in="SourceGraphic"/>
    </filter>
    <linearGradient id="linear-gradient" x1="0.5" x2="0.5" y2="1" gradientUnits="objectBoundingBox">
      <stop offset="0" stop-color="#d5e9f6"/>
      <stop offset="0.078" stop-color="#dde8f4"/>
      <stop offset="0.158" stop-color="#f9ebf2"/>
      <stop offset="0.193" stop-color="#e0e9f6"/>
      <stop offset="0.269" stop-color="#f6ecf6"/>
      <stop offset="0.374" stop-color="#efe7f2"/>
      <stop offset="0.444" stop-color="#dae6f0"/>
      <stop offset="0.508" stop-color="#eaeaf9"/>
      <stop offset="0.574" stop-color="#dde4ef"/>
      <stop offset="0.652" stop-color="#d6e4ed"/>
      <stop offset="0.741" stop-color="#d9fefe"/>
      <stop offset="0.818" stop-color="#fbe9f4"/>
      <stop offset="0.908" stop-color="#dae4ed"/>
      <stop offset="1" stop-color="#d7e3ec"/>
    </linearGradient>
    <filter id="Ellipse_99-2" x="44.906" y="225.147" width="720.518" height="1162.341" filterUnits="userSpaceOnUse">
      <feOffset dy="3" input="SourceAlpha"/>
      <feGaussianBlur stdDeviation="3" result="blur-2"/>
      <feFlood flood-opacity="0.161"/>
      <feComposite operator="in" in2="blur-2"/>
      <feComposite in="SourceGraphic"/>
    </filter>
    <filter id="Ellipse_99-3" x="90.714" y="166.62" width="647.818" height="1279.188" filterUnits="userSpaceOnUse">
      <feOffset dy="3" input="SourceAlpha"/>
      <feGaussianBlur stdDeviation="3" result="blur-3"/>
      <feFlood flood-opacity="0.161"/>
      <feComposite operator="in" in2="blur-3"/>
      <feComposite in="SourceGraphic"/>
    </filter>
    <filter id="Ellipse_99-4" x="136.977" y="109.965" width="546.675" height="1395.732" filterUnits="userSpaceOnUse">
      <feOffset dy="3" input="SourceAlpha"/>
      <feGaussianBlur stdDeviation="3" result="blur-4"/>
      <feFlood flood-opacity="0.161"/>
      <feComposite operator="in" in2="blur-4"/>
      <feComposite in="SourceGraphic"/>
    </filter>
    <filter id="Ellipse_99-5" x="183.437" y="57.781" width="414.596" height="1500.174" filterUnits="userSpaceOnUse">
      <feOffset dy="3" input="SourceAlpha"/>
      <feGaussianBlur stdDeviation="3" result="blur-5"/>
      <feFlood flood-opacity="0.161"/>
      <feComposite operator="in" in2="blur-5"/>
      <feComposite in="SourceGraphic"/>
    </filter>
    <filter id="Ellipse_99-6" x="229.964" y="18.888" width="253.968" height="1578.018" filterUnits="userSpaceOnUse">
      <feOffset dy="3" input="SourceAlpha"/>
      <feGaussianBlur stdDeviation="3" result="blur-6"/>
      <feFlood flood-opacity="0.161"/>
      <feComposite operator="in" in2="blur-6"/>
      <feComposite in="SourceGraphic"/>
    </filter>
    <filter id="Ellipse_99-7" x="276.505" y="0.004" width="73.774" height="1615.811" filterUnits="userSpaceOnUse">
      <feOffset dy="3" input="SourceAlpha"/>
      <feGaussianBlur stdDeviation="3" result="blur-7"/>
      <feFlood flood-opacity="0.161"/>
      <feComposite operator="in" in2="blur-7"/>
      <feComposite in="SourceGraphic"/>
    </filter>
    <filter id="Ellipse_99-8" x="193.695" y="4.825" width="147.353" height="1606.163" filterUnits="userSpaceOnUse">
      <feOffset dy="3" input="SourceAlpha"/>
      <feGaussianBlur stdDeviation="3" result="blur-8"/>
      <feFlood flood-opacity="0.161"/>
      <feComposite operator="in" in2="blur-8"/>
      <feComposite in="SourceGraphic"/>
    </filter>
  </defs>
  <g id="Group_66" data-name="Group 66" transform="translate(0 279.954)">
    <g transform="matrix(1, 0, 0, 1, 0, -279.95)" filter="url(#Ellipse_99)">
      <path id="Ellipse_99-9" data-name="Ellipse 99" d="M299.468,123.671a343.51,343.51,0,0,1,152.173-4.357c52.88,10.447,103.36,33.281,148.026,67.3,46.906,35.723,86.623,83.18,115.047,139.994,29.261,58.489,45.815,125.409,45.815,196.855s-16.554,138.382-45.815,196.9c-28.423,56.84-68.141,104.333-115.047,140.1C555,894.514,504.522,917.394,451.641,927.889a343.484,343.484,0,0,1-152.173-4.218A359.49,359.49,0,0,1,172,862.374a394.341,394.341,0,0,1-89.693-94.881A426.461,426.461,0,0,1,27.878,652.56a448.592,448.592,0,0,1,0-257.532A426.908,426.908,0,0,1,82.309,280.047,394.873,394.873,0,0,1,172,185.085,359.869,359.869,0,0,1,299.468,123.671Z" transform="translate(0 279.95)" fill="url(#radial-gradient)"/>
    </g>
    <path id="Ellipse_100" data-name="Ellipse 100" d="M284.522,111.051a333.561,333.561,0,0,1,148.011-3.295c51.266,10.483,100.125,32.963,143.292,66.226,45.266,34.881,83.542,81.052,110.9,136.193,28.143,56.714,44.053,121.521,44.053,190.673s-15.91,133.974-44.053,190.713c-27.362,55.165-65.638,101.371-110.9,136.293-43.166,33.3-92.025,55.827-143.292,66.357a333.541,333.541,0,0,1-148.011-3.16A348.974,348.974,0,0,1,159.99,831.958,383.307,383.307,0,0,1,72.058,739.6,415.241,415.241,0,0,1,18.572,627.264a437.331,437.331,0,0,1,0-252.184A415.678,415.678,0,0,1,72.058,262.693a383.824,383.824,0,0,1,87.933-92.436A349.339,349.339,0,0,1,284.522,111.051Z" transform="translate(14.947 22.62)" opacity="0.806" fill="url(#linear-gradient)"/>
  </g>
  <g id="Group_67" data-name="Group 67" transform="translate(44.905 225.147)">
    <g transform="matrix(1, 0, 0, 1, -44.91, -225.15)" filter="url(#Ellipse_99-2)">
      <path id="Ellipse_99-10" data-name="Ellipse 99" d="M254.562,178.478c46.019-17.37,93.731-23.2,140.842-17.557,51.117,6.121,101.017,25.676,146.1,58.073,48.312,34.718,90.019,83.4,120.328,143.781,31.613,62.981,49.686,136.394,49.686,215.394s-18.073,152.437-49.686,215.461c-30.309,60.423-72.016,109.16-120.328,143.944-45.082,32.458-94.983,52.081-146.1,58.27-47.111,5.7-94.823-.059-140.842-17.367-42.348-15.927-79.664-40.315-111.309-70-29.669-27.833-54.845-60.782-74.949-96.653a460.569,460.569,0,0,1-44.2-111.29,499.317,499.317,0,0,1,0-243.8A461.206,461.206,0,0,1,68.3,345.384c20.1-35.9,45.28-68.881,74.949-96.754C174.9,218.9,212.214,194.462,254.562,178.478Z" transform="translate(44.91 225.15)" fill="url(#radial-gradient)"/>
    </g>
    <path id="Ellipse_100-2" data-name="Ellipse 100" d="M240.816,162.224c44.82-16.5,91.187-21.709,136.867-15.772,49.45,6.427,97.61,25.852,141.023,57.628,46.422,33.978,86.413,81.33,115.425,139.832C664.35,404.844,681.6,475.722,681.6,551.927S664.35,699.033,634.132,760.006c-29.013,58.541-69,105.947-115.425,139.988-43.413,31.834-91.573,51.325-141.023,57.818-45.681,6-92.047.847-136.867-15.588C199.486,927.069,163,903.576,132,874.818c-29.1-27-53.825-59.077-73.59-94.08A448,448,0,0,1,14.9,671.877a486.746,486.746,0,0,1,0-239A448.617,448.617,0,0,1,58.415,323.956c19.765-35.03,44.49-67.138,73.59-94.179C163,200.976,199.486,177.435,240.816,162.224Z" transform="translate(13.747 26.254)" opacity="0.806" fill="url(#linear-gradient)"/>
  </g>
  <g id="Group_68" data-name="Group 68" transform="translate(90.715 166.618)">
    <g transform="matrix(1, 0, 0, 1, -90.72, -166.62)" filter="url(#Ellipse_99-3)">
      <path id="Ellipse_99-11" data-name="Ellipse 99" d="M208.754,237.005c39.669-21.308,81.593-31.41,123.808-29.852,46.754,1.725,93.379,17.727,136.363,48.119,47,33.231,88.376,82.743,118.922,146.553,32.3,67.473,50.971,147.7,50.971,234.769s-18.67,167.331-50.971,234.866c-30.546,63.868-71.922,113.46-118.922,146.781-42.984,30.474-89.609,46.565-136.363,48.38-42.216,1.639-84.14-8.383-123.808-29.615-35.855-19.191-66.948-46.021-92.955-77.269-24.088-28.943-44.309-62.266-60.313-97.851A522.231,522.231,0,0,1,20.741,753.644a583.421,583.421,0,0,1,0-232.917A523.105,523.105,0,0,1,55.486,412.419c16-35.616,36.225-68.977,60.313-97.967C141.806,283.154,172.9,256.265,208.754,237.005Z" transform="translate(90.71 166.62)" fill="url(#radial-gradient)"/>
    </g>
    <path id="Ellipse_100-3" data-name="Ellipse 100" d="M196.073,216.49c38.626-20.23,79.336-29.478,120.215-27.374,45.139,2.323,90.013,18.456,131.26,48.4,44.966,32.645,84.435,80.823,113.5,142.548,30.675,65.134,48.376,142.345,48.376,226.029s-17.7,160.929-48.376,226.122C531.983,894,492.513,942.25,447.548,974.982c-41.247,30.024-86.121,46.243-131.26,48.653-40.879,2.182-81.589-6.988-120.215-27.144-35-18.264-65.421-44.094-90.914-74.354-23.652-28.075-43.537-60.518-59.293-95.256A507.4,507.4,0,0,1,11.6,720.934a568.688,568.688,0,0,1,0-228.534A508.255,508.255,0,0,1,45.865,386.388c15.757-34.768,35.641-67.25,59.293-95.37C130.651,260.71,161.072,234.821,196.073,216.49Z" transform="translate(12.68 30.517)" opacity="0.806" fill="url(#linear-gradient)"/>
  </g>
  <g id="Group_69" data-name="Group 69" transform="translate(136.978 109.966)">
    <g transform="matrix(1, 0, 0, 1, -136.98, -109.97)" filter="url(#Ellipse_99-4)">
      <path id="Ellipse_99-12" data-name="Ellipse 99" d="M162.491,294.66c31.928-24.565,66.222-38.331,101.341-40.4,39.6-2.338,79.844,10.2,117.637,38.465,42.1,31.483,79.857,81.465,108.157,148.381,30.327,71.71,48.049,158.652,48.049,253.764S519.953,876.9,489.626,948.577c-28.3,66.885-66.055,116.825-108.157,148.262-37.793,28.219-78.039,40.717-117.637,38.336-35.118-2.112-69.412-15.916-101.341-40.516-28.433-21.907-52.77-50.714-72.9-83.192-18.466-29.792-33.836-63.377-45.916-98.718A636.212,636.212,0,0,1,17.7,806.885a729.169,729.169,0,0,1,0-224.611A635.727,635.727,0,0,1,43.675,476.438c12.08-35.327,27.45-68.9,45.916-98.667C109.722,345.316,134.058,316.536,162.491,294.66Z" transform="translate(136.98 109.97)" fill="url(#radial-gradient)"/>
    </g>
    <path id="Ellipse_100-4" data-name="Ellipse 100" d="M150.768,269.536c31.082-23.316,64.362-36.015,98.328-37.31,38.162-1.455,76.8,11.491,112.949,39.506C402.162,302.823,438,351.5,464.781,416.148c28.618,69.084,45.3,152.495,45.3,243.585s-16.685,174.483-45.3,243.535c-26.779,64.616-62.619,113.257-102.736,144.3-36.149,27.975-74.787,40.879-112.949,39.382-33.966-1.333-67.245-14.068-98.328-37.418-27.761-20.855-51.581-48.579-71.328-80.024-18.148-28.9-33.277-61.6-45.184-96.114A617.47,617.47,0,0,1,8.606,769.723a710.705,710.705,0,0,1,0-220.532,617,617,0,0,1,25.65-103.645c11.907-34.5,27.037-67.186,45.184-96.065C99.186,318.058,123.007,290.36,150.768,269.536Z" transform="translate(11.723 35.124)" opacity="0.806" fill="url(#linear-gradient)"/>
  </g>
  <g id="Group_70" data-name="Group 70" transform="translate(183.438 57.782)">
    <g transform="matrix(1, 0, 0, 1, -183.44, -57.78)" filter="url(#Ellipse_99-5)">
      <path id="Ellipse_99-13" data-name="Ellipse 99" d="M116.031,346.844C139.075,319.719,164.138,303,190.144,297.9c29.747-5.829,60.45,3.6,89.722,29.777,33.124,29.623,63.3,79.653,86.219,149.029,24.85,75.223,39.512,168.059,39.512,270.382S390.934,942.221,366.085,1017.4c-22.918,69.337-53.095,119.316-86.219,148.883-29.272,26.129-59.975,35.505-89.722,29.626-26.007-5.14-51.07-21.905-74.113-49.068-20.29-23.917-37.486-54.144-51.593-87.474-12.848-30.356-23.476-64.081-31.787-99.2A866.712,866.712,0,0,1,14.906,856.091a1014.886,1014.886,0,0,1,0-218.664A865.99,865.99,0,0,1,32.651,533.38c8.311-35.107,18.938-68.814,31.787-99.148C78.545,400.925,95.741,370.727,116.031,346.844Z" transform="translate(183.44 57.78)" fill="url(#radial-gradient)"/>
    </g>
    <path id="Ellipse_100-5" data-name="Ellipse 100" d="M105.184,317.246c22.43-25.741,46.739-41.224,71.868-45.345,28.627-4.694,58.043,5.393,85.967,31.528,31.455,29.44,59.98,78.235,81.56,145.193C367.9,520.974,381.617,609.8,381.617,707.478S367.9,893.959,344.579,966.272c-21.58,66.922-50.1,115.668-81.56,145.056-27.923,26.088-57.34,36.125-85.967,31.383-25.13-4.163-49.439-19.687-71.868-45.465-19.812-22.771-36.65-51.858-50.495-84.126-12.635-29.447-23.1-62.294-31.3-96.6A840.4,840.4,0,0,1,5.848,814.561a989.129,989.129,0,0,1,0-214.8A839.7,839.7,0,0,1,23.387,497.833c8.2-34.291,18.667-67.12,31.3-96.546C68.534,369.042,85.371,339.983,105.184,317.246Z" transform="translate(10.845 39.598)" opacity="0.806" fill="url(#linear-gradient)"/>
  </g>
  <g id="Group_71" data-name="Group 71" transform="translate(229.964 18.886)">
    <g transform="matrix(1, 0, 0, 1, -229.96, -18.89)" filter="url(#Ellipse_99-6)">
      <path id="Ellipse_99-14" data-name="Ellipse 99" d="M69.5,385.737c13.32-28.826,27.928-47.555,43.22-54.748,17.663-8.307,36.089-1.162,53.843,23.412,20.314,28.117,39.03,78,53.38,149.047,15.694,77.7,25.02,174.864,25.02,282.561s-9.326,204.836-25.02,282.483c-14.35,71-33.066,120.827-53.38,148.881-17.754,24.519-36.179,31.607-53.843,23.245-15.293-7.24-29.9-26.014-43.22-54.881-11.641-25.229-21.443-56.366-29.441-90.231-7.251-30.7-13.225-64.5-17.882-99.471-4.361-32.75-7.693-67.463-9.9-102.927C10.149,858.831,9,822.78,9,785.644s1.149-73.184,3.282-107.455c2.206-35.457,5.538-70.16,9.9-102.9,4.657-34.956,10.631-68.736,17.882-99.415C48.061,442.037,57.863,410.93,69.5,385.737Z" transform="translate(229.96 18.89)" fill="url(#radial-gradient)"/>
    </g>
    <path id="Ellipse_100-6" data-name="Ellipse 100" d="M59.478,352.607c12.963-27.353,27.127-44.723,41.895-50.8,16.982-6.988,34.611,1.009,51.514,25.7,19.243,28.109,36.881,76.831,50.345,145.36,14.667,74.648,23.353,167.43,23.353,270s-8.687,195.323-23.353,269.926c-13.464,68.487-31.1,117.155-50.345,145.2-16.9,24.639-34.533,32.582-51.514,25.542-14.768-6.123-28.932-23.536-41.895-50.93-11.368-24.021-20.968-53.982-28.82-86.767-7.134-29.784-13.021-62.707-17.617-96.871-4.31-32.034-7.605-66.054-9.79-100.859C1.139,814.451,0,779.022,0,742.515s1.139-71.932,3.251-105.586c2.184-34.8,5.48-68.808,9.79-100.828a983.251,983.251,0,0,1,17.617-96.816C38.511,406.524,48.111,376.593,59.478,352.607Z" transform="translate(10.026 43.131)" opacity="0.806" fill="url(#linear-gradient)"/>
  </g>
  <g id="Group_72" data-name="Group 72" transform="translate(276.505 0.002)">
    <g transform="matrix(1, 0, 0, 1, -276.51, 0)" filter="url(#Ellipse_99-7)">
      <path id="Ellipse_99-15" data-name="Ellipse 99" d="M22.963,404.621c3.1-29.6,6.522-49.246,10.114-57.411,4.168-9.473,8.537-3.423,12.767,20.36,4.866,27.354,9.373,77.121,12.844,148.924C62.5,595.347,64.774,694.6,64.774,804.905s-2.273,209.527-6.086,288.329c-3.471,71.756-7.979,121.461-12.844,148.749-4.23,23.725-8.6,29.716-12.767,20.186-3.592-8.215-7.01-27.909-10.114-57.549-2.7-25.816-4.974-57.357-6.823-91.457-1.672-30.851-3.047-64.679-4.118-99.58-1-32.646-1.765-67.182-2.271-102.417C9.263,877.132,9,841.362,9,804.526s.263-72.6.752-106.632c.506-35.228,1.27-69.754,2.271-102.386,1.07-34.886,2.445-68.7,4.118-99.524C17.988,461.91,20.259,430.4,22.963,404.621Z" transform="translate(276.51 0)" fill="url(#radial-gradient)"/>
    </g>
    <path id="Ellipse_100-7" data-name="Ellipse 100" d="M13.728,369.714c3.021-28.083,6.334-46.318,9.8-53.3,4.005-8.066,8.182-1.069,12.207,22.913,4.6,27.436,8.845,76.079,12.1,145.325,3.556,75.722,5.668,170.4,5.668,275.335s-2.113,199.584-5.668,275.258c-3.251,69.2-7.493,117.787-12.1,145.16-4.024,23.927-8.2,30.868-12.207,22.747-3.468-7.032-6.781-25.311-9.8-53.436-2.641-24.582-4.864-54.93-6.679-87.941-1.645-29.93-3-62.883-4.057-96.981C2,932.857,1.245,899.006.745,864.422.261,830.995,0,795.837,0,759.62S.261,688.25.745,654.829c.5-34.577,1.257-68.417,2.246-100.338,1.057-34.084,2.412-67.019,4.057-96.926C8.863,424.577,11.087,394.26,13.728,369.714Z" transform="translate(9.235 44.909)" opacity="0.806" fill="url(#linear-gradient)"/>
  </g>
  <g id="Group_73" data-name="Group 73" transform="translate(193.694 4.823)">
    <g transform="matrix(1, 0, 0, 1, -193.69, -4.82)" filter="url(#Ellipse_99-8)">
      <path id="Ellipse_99-16" data-name="Ellipse 99" d="M105.774,399.8c-7.226-29.4-15.173-48.82-23.518-56.74-9.671-9.178-19.8-2.849-29.588,21.136-11.247,27.55-21.652,77.351-29.656,148.963C14.231,591.72,9,690.442,9,800.081s5.232,208.331,14.013,286.841c8,71.566,18.409,121.305,29.656,148.791,9.792,23.928,19.917,30.2,29.588,20.965,8.345-7.968,16.292-27.431,23.518-56.877,6.3-25.669,11.592-57.109,15.9-91.15,3.9-30.814,7.113-64.635,9.613-99.553,2.339-32.672,4.125-67.252,5.307-102.544,1.142-34.1,1.757-69.936,1.757-106.847s-.615-72.748-1.757-106.837c-1.182-35.285-2.968-69.855-5.307-102.513-2.5-34.9-5.711-68.706-9.613-99.5C117.366,456.842,112.073,425.433,105.774,399.8Z" transform="translate(193.69 4.82)" fill="url(#radial-gradient)"/>
    </g>
    <path id="Ellipse_100-8" data-name="Ellipse 100" d="M92.087,365.351c-7.032-27.9-14.737-45.917-22.793-52.672C60,304.886,50.316,312.138,41,336.3c-10.646,27.609-20.44,76.275-27.941,145.341C4.865,557.093,0,651.29,0,755.619s4.865,198.5,13.059,273.9c7.5,69.022,17.295,117.631,27.941,145.178,9.317,24.109,19,31.305,28.294,23.458,8.057-6.8,15.761-24.864,22.793-52.8,6.151-24.441,11.335-54.693,15.568-87.648,3.84-29.894,7-62.84,9.472-96.954,2.312-31.959,4.079-65.852,5.249-100.491,1.131-33.486,1.741-68.711,1.741-105s-.61-71.511-1.741-104.99c-1.17-34.632-2.937-68.515-5.249-100.461-2.468-34.1-5.633-67.028-9.472-96.9C103.422,419.978,98.238,389.757,92.087,365.351Z" transform="translate(13.688 44.451)" opacity="0.806" fill="url(#linear-gradient)"/>
  </g>
</svg>
